<mxfile host="app.diagrams.net" agent="Mozilla/5.0 (Windows NT 10.0; Win64; x64) AppleWebKit/537.36 (KHTML, like Gecko) Chrome/131.0.0.0 Safari/537.36" version="27.0.6">
  <diagram name="Trang-1" id="rWq6YghfRqfJSA5CN19g">
    <mxGraphModel grid="0" page="1" gridSize="10" guides="1" tooltips="1" connect="1" arrows="1" fold="1" pageScale="1" pageWidth="1169" pageHeight="1654" math="0" shadow="0">
      <root>
        <mxCell id="0" />
        <mxCell id="1" parent="0" />
        <mxCell id="j9DOkO2j8USRJui50RMz-1" value="&lt;p style=&quot;margin:0px;margin-top:4px;text-align:center;&quot;&gt;&lt;i&gt;&amp;lt;&amp;lt;boundary&amp;gt;&amp;gt;&lt;/i&gt;&lt;br&gt;&lt;b&gt;QuanLyDonHangUI&lt;/b&gt;&lt;/p&gt;&lt;hr&gt;&lt;p dir=&quot;auto&quot;&gt;&lt;span style=&quot;white-space: pre-wrap;&quot;&gt;+ kich muc &quot;Don hang&quot;()&lt;br&gt;+ hien thi danh sach don hang()&lt;br&gt;+ kich nut &quot;kiem tra&quot;()&lt;br&gt;+ hien thi &quot;thong tin chi tiet don hang&quot;()&lt;br&gt;+ kich nut &quot;xac nhan&quot;()&lt;br&gt;+ hien thi &quot;thong bao xac nhan don hang&quot;()&lt;br&gt;+ kich nut &quot;xac nhan don&quot;()&lt;br&gt;+ hien thi danh sach don hang va thong bao xac nhan don hang thanh cong()&lt;br&gt;+ kich nut &quot;huy don&quot;()&lt;br&gt;+ hien thi &quot;thong bao xac nhan huy don&quot;()&lt;br&gt;+ kich nut &quot;huy&quot;()&lt;br&gt;+ hien thi danh sach don hang va thong bao xac nhan huy thanh cong()&lt;br&gt;+ kich nut &quot;Da thanh toan&quot;()&lt;br&gt;+ hien thi danh sach don hang va thong bao xac nhan da thanh toan thanh cong()&lt;br&gt;+ hien thi danh sach don hang can tim()&lt;br&gt;+ kich nut &quot;xuat excel&quot;()&lt;br&gt;+ hien thi danh sach don hang va file xuat excel()&lt;/span&gt;&lt;/p&gt;&lt;p dir=&quot;auto&quot; style=&quot;white-space: pre-wrap;&quot;&gt;&lt;br&gt;&lt;/p&gt;&lt;p dir=&quot;auto&quot; style=&quot;white-space: pre-wrap;&quot;&gt;&lt;br&gt;&lt;/p&gt;&lt;p style=&quot;margin:0px;margin-left:4px;&quot;&gt;&lt;br&gt;&lt;/p&gt;" style="verticalAlign=top;align=left;overflow=fill;fontSize=13;fontFamily=Helvetica;html=1;rounded=0;shadow=0;comic=0;labelBackgroundColor=none;strokeWidth=1;fillColor=#F2CC8F;strokeColor=#E07A5F;fontColor=#393C56;" vertex="1" parent="1">
          <mxGeometry x="291" y="90" width="280" height="350" as="geometry" />
        </mxCell>
        <mxCell id="j9DOkO2j8USRJui50RMz-2" value="&lt;p style=&quot;margin:0px;margin-top:4px;text-align:center;&quot;&gt;&lt;i&gt;&amp;lt;&amp;lt;entity&amp;gt;&lt;/i&gt;&lt;br&gt;&lt;b&gt;Orders&lt;/b&gt;&lt;/p&gt;&lt;hr&gt;&lt;p dir=&quot;auto&quot;&gt;&lt;span style=&quot;white-space: pre-wrap;&quot;&gt;+ ordersId&lt;br&gt;+ address&lt;br&gt;+ amount&lt;br&gt;+ orderDate&lt;br&gt;+ phone&lt;br&gt;+ status&lt;br&gt;+ userId&lt;br&gt;+ ship&lt;/span&gt;&lt;/p&gt;&lt;hr&gt;&lt;div&gt;&lt;div&gt;+ getOrdersId()&lt;/div&gt;&lt;div&gt;+ setOrdersId()&lt;/div&gt;&lt;div&gt;+ getAddress()&lt;/div&gt;&lt;div&gt;+ setAddress()&lt;/div&gt;&lt;div&gt;+ getAmount()&lt;/div&gt;&lt;div&gt;+ setAmount()&lt;/div&gt;&lt;div&gt;+ getOrderDate()&lt;/div&gt;&lt;div&gt;+ setOrderDate()&lt;/div&gt;&lt;div&gt;+ getPhone()&lt;/div&gt;&lt;div&gt;+ setPhone()&lt;/div&gt;&lt;div&gt;+ getStatus()&lt;/div&gt;&lt;div&gt;+ setStatus()&lt;/div&gt;&lt;div&gt;+ getUserId()&lt;/div&gt;&lt;div&gt;+ setUserId()&lt;/div&gt;&lt;div&gt;+ getShip()&lt;/div&gt;&lt;div&gt;+ setShip()&lt;/div&gt;&lt;div&gt;+ doc bang Orders()&lt;/div&gt;&lt;div&gt;+ getOrders()&lt;/div&gt;&lt;div&gt;+ updateOrderByOrderId()&lt;/div&gt;&lt;div&gt;+ getOrdersByOrderId()&lt;/div&gt;&lt;/div&gt;&lt;div&gt;&lt;br&gt;&lt;p dir=&quot;auto&quot; style=&quot;white-space: pre-wrap;&quot;&gt;&lt;br&gt;&lt;/p&gt;&lt;/div&gt;" style="verticalAlign=top;align=left;overflow=fill;fontSize=13;fontFamily=Helvetica;html=1;rounded=0;shadow=0;comic=0;labelBackgroundColor=none;strokeWidth=1;fillColor=#F2CC8F;strokeColor=#E07A5F;fontColor=#393C56;" vertex="1" parent="1">
          <mxGeometry x="351" y="500" width="160" height="520" as="geometry" />
        </mxCell>
        <mxCell id="j9DOkO2j8USRJui50RMz-3" value="&lt;p style=&quot;margin:0px;margin-top:4px;text-align:center;&quot;&gt;&lt;i&gt;&amp;lt;&amp;lt;Control&amp;gt;&amp;gt;&lt;/i&gt;&lt;br&gt;&lt;b&gt;QuanLyDonHang&lt;/b&gt;&lt;b&gt;Controller&lt;/b&gt;&lt;/p&gt;&lt;hr&gt;&lt;div&gt;&lt;div&gt;+ lay thong tin don hang()&lt;/div&gt;&lt;div&gt;+ lay thong tin nguoi dung()&lt;/div&gt;&lt;div&gt;+ lay thong tin san pham cua chi tiet don hang()&lt;/div&gt;&lt;div&gt;+ lay thong tin chi tiet cua don hang()&lt;/div&gt;&lt;div&gt;+ cap nhat trang thai cua don hang da xac nhan()&lt;/div&gt;&lt;div&gt;+ cap nhat trang thai don hang da huy()&lt;/div&gt;&lt;div&gt;+ cap nhat lai trang thai da thanh toan()&lt;/div&gt;&lt;div&gt;+ lay thong tin don hang can tim()&lt;/div&gt;&lt;div&gt;+ lay thong tin tat ca don hang de xuat excel()&lt;/div&gt;&lt;/div&gt;&lt;div&gt;&lt;p dir=&quot;auto&quot; style=&quot;white-space: pre-wrap;&quot;&gt;&lt;br&gt;&lt;/p&gt;&lt;p dir=&quot;auto&quot; style=&quot;white-space: pre-wrap;&quot;&gt;&lt;br&gt;&lt;/p&gt;&lt;/div&gt;" style="verticalAlign=top;align=left;overflow=fill;fontSize=13;fontFamily=Helvetica;html=1;rounded=0;shadow=0;comic=0;labelBackgroundColor=none;strokeWidth=1;fillColor=#F2CC8F;strokeColor=#E07A5F;fontColor=#393C56;" vertex="1" parent="1">
          <mxGeometry x="665" y="90" width="270" height="210" as="geometry" />
        </mxCell>
        <mxCell id="j9DOkO2j8USRJui50RMz-4" value="&lt;b&gt;NguoiQuanTri&lt;/b&gt;" style="shape=umlActor;verticalLabelPosition=bottom;verticalAlign=top;html=1;outlineConnect=0;textShadow=0;labelBorderColor=none;labelBackgroundColor=none;fillColor=#F2CC8F;strokeColor=#E07A5F;fontColor=#393C56;fontSize=13;" vertex="1" parent="1">
          <mxGeometry x="181" y="105" width="27" height="65" as="geometry" />
        </mxCell>
        <mxCell id="j9DOkO2j8USRJui50RMz-5" value="" style="endArrow=none;html=1;rounded=0;labelBackgroundColor=none;fontColor=default;strokeColor=#E07A5F;fontSize=13;" edge="1" parent="1">
          <mxGeometry relative="1" as="geometry">
            <mxPoint x="218" y="131" as="sourcePoint" />
            <mxPoint x="290" y="130" as="targetPoint" />
          </mxGeometry>
        </mxCell>
        <mxCell id="j9DOkO2j8USRJui50RMz-6" value="1" style="text;html=1;align=center;verticalAlign=middle;resizable=0;points=[];autosize=1;strokeColor=none;fillColor=none;labelBackgroundColor=none;fontColor=#393C56;fontSize=13;" vertex="1" parent="1">
          <mxGeometry x="635" y="120" width="30" height="30" as="geometry" />
        </mxCell>
        <mxCell id="j9DOkO2j8USRJui50RMz-7" value="" style="endArrow=none;html=1;rounded=0;labelBackgroundColor=none;fontColor=default;entryX=0.5;entryY=0;entryDx=0;entryDy=0;strokeColor=#E07A5F;fontSize=13;" edge="1" parent="1" target="j9DOkO2j8USRJui50RMz-11">
          <mxGeometry relative="1" as="geometry">
            <mxPoint x="800" y="300" as="sourcePoint" />
            <mxPoint x="795.58" y="410" as="targetPoint" />
          </mxGeometry>
        </mxCell>
        <mxCell id="j9DOkO2j8USRJui50RMz-8" value="" style="endArrow=none;html=1;rounded=0;labelBackgroundColor=none;fontColor=default;exitX=0.333;exitY=1;exitDx=0;exitDy=0;exitPerimeter=0;entryX=0.546;entryY=0.001;entryDx=0;entryDy=0;entryPerimeter=0;strokeColor=#E07A5F;fontSize=13;" edge="1" parent="1" source="j9DOkO2j8USRJui50RMz-3" target="j9DOkO2j8USRJui50RMz-12">
          <mxGeometry relative="1" as="geometry">
            <mxPoint x="735" y="380" as="sourcePoint" />
            <mxPoint x="665" y="510" as="targetPoint" />
          </mxGeometry>
        </mxCell>
        <mxCell id="j9DOkO2j8USRJui50RMz-10" value="&lt;p style=&quot;margin:0px;margin-top:4px;text-align:center;&quot;&gt;&lt;i&gt;&amp;lt;&amp;lt;entity&amp;gt;&lt;/i&gt;&lt;br&gt;&lt;b&gt;Users&lt;/b&gt;&lt;/p&gt;&lt;hr&gt;&lt;p dir=&quot;auto&quot;&gt;&lt;span style=&quot;white-space: pre-wrap;&quot;&gt;+ email&lt;br&gt;+ password&lt;br&gt;+ userId&lt;br&gt;+ address&lt;br&gt;+ gender&lt;br&gt;+ image&lt;br&gt;+ phone&lt;br&gt;+ registerDate&lt;br&gt;+ status&lt;br&gt;+ token&lt;br&gt;+ name&lt;/span&gt;&lt;/p&gt;&lt;hr&gt;&lt;div&gt;&lt;div&gt;+ getEmail()&lt;/div&gt;&lt;div&gt;+ setEmail()&lt;/div&gt;&lt;div&gt;+ getPassword()&lt;/div&gt;&lt;div&gt;+ setPassword()&lt;/div&gt;&lt;div&gt;+ getUserId()&lt;/div&gt;&lt;div&gt;+ setUserId()&lt;/div&gt;&lt;div&gt;+ getAddress()&lt;/div&gt;&lt;div&gt;+ setAddress()&lt;/div&gt;&lt;div&gt;+ getGender()&lt;/div&gt;&lt;div&gt;+ setGender()&lt;/div&gt;&lt;div&gt;+ getPhone()&lt;/div&gt;&lt;div&gt;+ setPhone()&lt;/div&gt;&lt;div&gt;+ getImage()&lt;/div&gt;&lt;div&gt;+ setImage()&lt;/div&gt;&lt;div&gt;+ getRegisterDate()&lt;/div&gt;&lt;div&gt;+ setRegisterDate()&lt;/div&gt;&lt;div&gt;+ getStatus()&lt;/div&gt;&lt;div&gt;+ setStatus()&lt;/div&gt;&lt;div&gt;+ getToken()&lt;/div&gt;&lt;div&gt;+ setToken()&lt;/div&gt;&lt;div&gt;+ getName()&lt;/div&gt;&lt;div&gt;+ setName()&lt;/div&gt;&lt;div&gt;+ getUsers()&lt;/div&gt;&lt;div&gt;+ getUsersByUserId()&lt;/div&gt;&lt;div&gt;+ getUsersByName()&lt;/div&gt;&lt;div&gt;+ updateUsersByUserId()&lt;/div&gt;&lt;div&gt;+ deleteUsersByUserId()&lt;/div&gt;&lt;div&gt;&lt;span style=&quot;background-color: transparent;&quot;&gt;+ createUsers()&lt;/span&gt;&lt;span style=&quot;background-color: transparent; color: light-dark(rgb(0, 0, 0), rgb(255, 255, 255));&quot;&gt;&amp;nbsp;&amp;nbsp;&lt;/span&gt;&lt;/div&gt;&lt;/div&gt;&lt;div&gt;&lt;p dir=&quot;auto&quot; style=&quot;white-space: pre-wrap;&quot;&gt;&lt;br&gt;&lt;/p&gt;&lt;/div&gt;" style="verticalAlign=top;align=left;overflow=fill;fontSize=13;fontFamily=Helvetica;html=1;rounded=0;shadow=0;comic=0;labelBackgroundColor=none;strokeWidth=1;fillColor=#F2CC8F;strokeColor=#E07A5F;fontColor=#393C56;" vertex="1" parent="1">
          <mxGeometry x="138" y="470" width="160" height="690" as="geometry" />
        </mxCell>
        <mxCell id="j9DOkO2j8USRJui50RMz-11" value="&lt;p style=&quot;margin:0px;margin-top:4px;text-align:center;&quot;&gt;&lt;i&gt;&amp;lt;&amp;lt;entity&amp;gt;&lt;/i&gt;&lt;br&gt;&lt;b&gt;Products&lt;/b&gt;&lt;/p&gt;&lt;hr&gt;&lt;p dir=&quot;auto&quot;&gt;&lt;span style=&quot;white-space: pre-wrap;&quot;&gt;+ productId  &lt;br&gt;+ description  &lt;br&gt;+ discount  &lt;br&gt;+ enteredDate  &lt;br&gt;+ image  &lt;br&gt;+ price  &lt;br&gt;+ name  &lt;br&gt;+ quantity  &lt;br&gt;+ sold  &lt;br&gt;+ status  &lt;br&gt;+ categoryId  &lt;br&gt;+ branch  &lt;br&gt;+ material&lt;/span&gt;&amp;nbsp;&amp;nbsp;&lt;/p&gt;&lt;hr&gt;&lt;div&gt;&lt;div&gt;+ getProductId()&amp;nbsp;&amp;nbsp;&lt;/div&gt;&lt;div&gt;+ setProductId()&amp;nbsp;&amp;nbsp;&lt;/div&gt;&lt;div&gt;+ getDescription()&amp;nbsp;&amp;nbsp;&lt;/div&gt;&lt;div&gt;+ setDescription()&amp;nbsp;&amp;nbsp;&lt;/div&gt;&lt;div&gt;+ getDiscount()&amp;nbsp;&amp;nbsp;&lt;/div&gt;&lt;div&gt;+ setDiscount()&amp;nbsp;&amp;nbsp;&lt;/div&gt;&lt;div&gt;+ getEnteredDate()&amp;nbsp;&amp;nbsp;&lt;/div&gt;&lt;div&gt;+ setEnteredDate()&amp;nbsp;&amp;nbsp;&lt;/div&gt;&lt;div&gt;+ getImage()&amp;nbsp;&amp;nbsp;&lt;/div&gt;&lt;div&gt;+ setImage()&amp;nbsp;&amp;nbsp;&lt;/div&gt;&lt;div&gt;+ getPrice()&amp;nbsp;&amp;nbsp;&lt;/div&gt;&lt;div&gt;+ setPrice()&amp;nbsp;&amp;nbsp;&lt;/div&gt;&lt;div&gt;+ getName()&amp;nbsp;&amp;nbsp;&lt;/div&gt;&lt;div&gt;+ setName()&amp;nbsp;&amp;nbsp;&lt;/div&gt;&lt;div&gt;+ getQuantity()&amp;nbsp;&amp;nbsp;&lt;/div&gt;&lt;div&gt;+ setQuantity()&amp;nbsp;&amp;nbsp;&lt;/div&gt;&lt;div&gt;+ getSold()&amp;nbsp;&amp;nbsp;&lt;/div&gt;&lt;div&gt;+ setSold()&amp;nbsp;&amp;nbsp;&lt;/div&gt;&lt;div&gt;+ getStatus()&amp;nbsp;&amp;nbsp;&lt;/div&gt;&lt;div&gt;+ setStatus()&amp;nbsp;&amp;nbsp;&lt;/div&gt;&lt;div&gt;+ getCategoryId()&amp;nbsp;&amp;nbsp;&lt;/div&gt;&lt;div&gt;+ setCategoryId()&amp;nbsp;&amp;nbsp;&lt;/div&gt;&lt;div&gt;+ getBranch()&amp;nbsp;&amp;nbsp;&lt;/div&gt;&lt;div&gt;+ setBranch()&amp;nbsp;&amp;nbsp;&lt;/div&gt;&lt;div&gt;+ getMaterial()&amp;nbsp;&amp;nbsp;&lt;/div&gt;&lt;div&gt;+ setMaterial()&amp;nbsp;&amp;nbsp;&lt;/div&gt;&lt;div&gt;+ getProductsByCategoryId()&amp;nbsp;&amp;nbsp;&lt;/div&gt;&lt;div&gt;+ getProductsByOrderDetailId()&amp;nbsp;&amp;nbsp;&lt;/div&gt;&lt;div&gt;+ updateProductsByProductId()&amp;nbsp;&amp;nbsp;&lt;/div&gt;&lt;div&gt;+ getProductsByProductId()&amp;nbsp;&amp;nbsp;&lt;/div&gt;&lt;div&gt;+ getProductsByName()&amp;nbsp;&amp;nbsp;&lt;/div&gt;&lt;div&gt;+ getProducts()&amp;nbsp;&amp;nbsp;&lt;/div&gt;&lt;div&gt;+ deleteProductsByProductId()&amp;nbsp;&amp;nbsp;&lt;/div&gt;&lt;div&gt;+ createProducts()&amp;nbsp;&amp;nbsp;&lt;/div&gt;&lt;/div&gt;&lt;div&gt;&lt;br&gt;&lt;/div&gt;&lt;div&gt;&lt;br&gt;&lt;p dir=&quot;auto&quot; style=&quot;white-space: pre-wrap;&quot;&gt;&lt;br&gt;&lt;/p&gt;&lt;/div&gt;" style="verticalAlign=top;align=left;overflow=fill;fontSize=13;fontFamily=Helvetica;html=1;rounded=0;shadow=0;comic=0;labelBackgroundColor=none;strokeWidth=1;fillColor=#F2CC8F;strokeColor=#E07A5F;fontColor=#393C56;" vertex="1" parent="1">
          <mxGeometry x="778" y="400" width="170" height="810" as="geometry" />
        </mxCell>
        <mxCell id="j9DOkO2j8USRJui50RMz-12" value="&lt;p style=&quot;margin:0px;margin-top:4px;text-align:center;&quot;&gt;&lt;i&gt;&amp;lt;&amp;lt;entity&amp;gt;&lt;/i&gt;&lt;br&gt;&lt;b&gt;OrderDetails&lt;/b&gt;&lt;/p&gt;&lt;hr&gt;&lt;p dir=&quot;auto&quot;&gt;&lt;span style=&quot;white-space: pre-wrap;&quot;&gt;+ orderDetailId&lt;br&gt;+ price&lt;br&gt;+ quantity&lt;br&gt;+ orderId&lt;br&gt;+ productId&lt;br&gt;+ size&lt;/span&gt;&lt;/p&gt;&lt;hr&gt;&lt;div&gt;&lt;div&gt;+ getOrderDetailId()&lt;/div&gt;&lt;div&gt;+ setOrderDetailId()&lt;/div&gt;&lt;div&gt;+ getPrice()&lt;/div&gt;&lt;div&gt;+ setPrice()&lt;/div&gt;&lt;div&gt;+ getQuantity()&lt;/div&gt;&lt;div&gt;+ setQuantity()&lt;/div&gt;&lt;div&gt;+ getOrderId()&lt;/div&gt;&lt;div&gt;+ setOrderId()&lt;/div&gt;&lt;div&gt;+ getProductId()&lt;/div&gt;&lt;div&gt;+ setProductId()&lt;/div&gt;&lt;div&gt;+ getSize()&lt;/div&gt;&lt;div&gt;+ setSize()&lt;/div&gt;&lt;div&gt;+ getOrderDetails()&lt;/div&gt;&lt;div&gt;+ getOrderDetailsByOrderDetailId()&lt;/div&gt;&lt;/div&gt;&lt;div&gt;&lt;br&gt;&lt;/div&gt;&lt;div&gt;&lt;br&gt;&lt;p dir=&quot;auto&quot; style=&quot;white-space: pre-wrap;&quot;&gt;&lt;br&gt;&lt;/p&gt;&lt;/div&gt;" style="verticalAlign=top;align=left;overflow=fill;fontSize=13;fontFamily=Helvetica;html=1;rounded=0;shadow=0;comic=0;labelBackgroundColor=none;strokeWidth=1;fillColor=#F2CC8F;strokeColor=#E07A5F;fontColor=#393C56;" vertex="1" parent="1">
          <mxGeometry x="552" y="521" width="196" height="399" as="geometry" />
        </mxCell>
        <mxCell id="j9DOkO2j8USRJui50RMz-13" value="1" style="text;html=1;align=center;verticalAlign=middle;resizable=0;points=[];autosize=1;strokeColor=none;fillColor=none;labelBackgroundColor=none;fontColor=#393C56;fontSize=13;" vertex="1" parent="1">
          <mxGeometry x="511" y="940" width="30" height="30" as="geometry" />
        </mxCell>
        <mxCell id="j9DOkO2j8USRJui50RMz-14" value="1" style="text;html=1;align=center;verticalAlign=middle;resizable=0;points=[];autosize=1;strokeColor=none;fillColor=none;labelBackgroundColor=none;fontColor=#393C56;fontSize=13;" vertex="1" parent="1">
          <mxGeometry x="291" y="1020" width="30" height="30" as="geometry" />
        </mxCell>
        <mxCell id="j9DOkO2j8USRJui50RMz-15" value="1" style="text;html=1;align=center;verticalAlign=middle;resizable=0;points=[];autosize=1;strokeColor=none;fillColor=none;labelBackgroundColor=none;fontColor=#393C56;fontSize=13;" vertex="1" parent="1">
          <mxGeometry x="810" y="300" width="30" height="30" as="geometry" />
        </mxCell>
        <mxCell id="j9DOkO2j8USRJui50RMz-16" value="1" style="text;html=1;align=center;verticalAlign=middle;resizable=0;points=[];autosize=1;strokeColor=none;fillColor=none;labelBackgroundColor=none;fontColor=#393C56;fontSize=13;" vertex="1" parent="1">
          <mxGeometry x="635" y="270" width="30" height="30" as="geometry" />
        </mxCell>
        <mxCell id="j9DOkO2j8USRJui50RMz-17" value="1" style="text;html=1;align=center;verticalAlign=middle;resizable=0;points=[];autosize=1;strokeColor=none;fillColor=none;labelBackgroundColor=none;fontColor=#393C56;fontSize=13;" vertex="1" parent="1">
          <mxGeometry x="695" y="300" width="30" height="30" as="geometry" />
        </mxCell>
        <mxCell id="j9DOkO2j8USRJui50RMz-18" value="1" style="text;html=1;align=center;verticalAlign=middle;resizable=0;points=[];autosize=1;strokeColor=none;fillColor=none;labelBackgroundColor=none;fontColor=#393C56;fontSize=13;" vertex="1" parent="1">
          <mxGeometry x="748" y="300" width="30" height="30" as="geometry" />
        </mxCell>
        <mxCell id="j9DOkO2j8USRJui50RMz-20" value="n" style="text;html=1;align=center;verticalAlign=middle;resizable=0;points=[];autosize=1;strokeColor=none;fillColor=none;labelBackgroundColor=none;fontColor=#393C56;fontSize=13;" vertex="1" parent="1">
          <mxGeometry x="298" y="450" width="30" height="30" as="geometry" />
        </mxCell>
        <mxCell id="j9DOkO2j8USRJui50RMz-21" value="n" style="text;html=1;align=center;verticalAlign=middle;resizable=0;points=[];autosize=1;strokeColor=none;fillColor=none;labelBackgroundColor=none;fontColor=#393C56;fontSize=13;" vertex="1" parent="1">
          <mxGeometry x="861" y="370" width="30" height="30" as="geometry" />
        </mxCell>
        <mxCell id="j9DOkO2j8USRJui50RMz-22" value="" style="endArrow=none;html=1;rounded=0;labelBackgroundColor=none;fontColor=default;exitX=0.991;exitY=0.146;exitDx=0;exitDy=0;exitPerimeter=0;strokeColor=#E07A5F;fontSize=13;entryX=0;entryY=0.25;entryDx=0;entryDy=0;" edge="1" parent="1" source="j9DOkO2j8USRJui50RMz-1" target="j9DOkO2j8USRJui50RMz-3">
          <mxGeometry relative="1" as="geometry">
            <mxPoint x="598" y="131" as="sourcePoint" />
            <mxPoint x="661" y="130" as="targetPoint" />
          </mxGeometry>
        </mxCell>
        <mxCell id="j9DOkO2j8USRJui50RMz-23" value="1" style="text;html=1;align=center;verticalAlign=middle;resizable=0;points=[];autosize=1;strokeColor=none;fillColor=none;labelBackgroundColor=none;fontColor=#393C56;fontSize=13;" vertex="1" parent="1">
          <mxGeometry x="571" y="120" width="30" height="30" as="geometry" />
        </mxCell>
        <mxCell id="j9DOkO2j8USRJui50RMz-27" value="" style="endArrow=none;html=1;rounded=0;labelBackgroundColor=none;fontColor=default;entryX=-0.008;entryY=0.738;entryDx=0;entryDy=0;entryPerimeter=0;strokeColor=#E07A5F;fontSize=13;exitX=0.75;exitY=1;exitDx=0;exitDy=0;" edge="1" parent="1" source="j9DOkO2j8USRJui50RMz-12" target="j9DOkO2j8USRJui50RMz-11">
          <mxGeometry relative="1" as="geometry">
            <mxPoint x="720" y="1140" as="sourcePoint" />
            <mxPoint x="761.6999999999999" y="960" as="targetPoint" />
          </mxGeometry>
        </mxCell>
        <mxCell id="j9DOkO2j8USRJui50RMz-28" value="" style="endArrow=none;html=1;rounded=0;labelBackgroundColor=none;fontColor=default;strokeColor=#E07A5F;fontSize=13;entryX=0.25;entryY=1;entryDx=0;entryDy=0;" edge="1" parent="1" target="j9DOkO2j8USRJui50RMz-12">
          <mxGeometry relative="1" as="geometry">
            <mxPoint x="511" y="951" as="sourcePoint" />
            <mxPoint x="580" y="1100" as="targetPoint" />
          </mxGeometry>
        </mxCell>
        <mxCell id="j9DOkO2j8USRJui50RMz-29" value="" style="endArrow=none;html=1;rounded=0;labelBackgroundColor=none;fontColor=default;strokeColor=#E07A5F;fontSize=13;entryX=0.211;entryY=1.002;entryDx=0;entryDy=0;entryPerimeter=0;" edge="1" parent="1" target="j9DOkO2j8USRJui50RMz-2">
          <mxGeometry relative="1" as="geometry">
            <mxPoint x="298" y="1061" as="sourcePoint" />
            <mxPoint x="350" y="1120" as="targetPoint" />
          </mxGeometry>
        </mxCell>
        <mxCell id="j9DOkO2j8USRJui50RMz-30" value="n" style="text;html=1;align=center;verticalAlign=middle;resizable=0;points=[];autosize=1;strokeColor=none;fillColor=none;labelBackgroundColor=none;fontColor=#393C56;fontSize=13;" vertex="1" parent="1">
          <mxGeometry x="380" y="1020" width="30" height="30" as="geometry" />
        </mxCell>
        <mxCell id="j9DOkO2j8USRJui50RMz-31" value="n" style="text;html=1;align=center;verticalAlign=middle;resizable=0;points=[];autosize=1;strokeColor=none;fillColor=none;labelBackgroundColor=none;fontColor=#393C56;fontSize=13;" vertex="1" parent="1">
          <mxGeometry x="598" y="690" width="30" height="30" as="geometry" />
        </mxCell>
        <mxCell id="j9DOkO2j8USRJui50RMz-32" value="n" style="text;html=1;align=center;verticalAlign=middle;resizable=0;points=[];autosize=1;strokeColor=none;fillColor=none;labelBackgroundColor=none;fontColor=#393C56;fontSize=13;" vertex="1" parent="1">
          <mxGeometry x="590" y="920" width="30" height="30" as="geometry" />
        </mxCell>
        <mxCell id="j9DOkO2j8USRJui50RMz-33" value="1" style="text;html=1;align=center;verticalAlign=middle;resizable=0;points=[];autosize=1;strokeColor=none;fillColor=none;labelBackgroundColor=none;fontColor=#393C56;fontSize=13;" vertex="1" parent="1">
          <mxGeometry x="748" y="960" width="30" height="30" as="geometry" />
        </mxCell>
        <mxCell id="j9DOkO2j8USRJui50RMz-36" value="n" style="text;html=1;align=center;verticalAlign=middle;resizable=0;points=[];autosize=1;strokeColor=none;fillColor=none;labelBackgroundColor=none;fontColor=#393C56;fontSize=13;" vertex="1" parent="1">
          <mxGeometry x="665" y="491" width="30" height="30" as="geometry" />
        </mxCell>
        <mxCell id="j9DOkO2j8USRJui50RMz-37" value="" style="endArrow=none;html=1;rounded=0;labelBackgroundColor=none;fontColor=default;exitX=0.139;exitY=1.015;exitDx=0;exitDy=0;exitPerimeter=0;strokeColor=#E07A5F;fontSize=13;" edge="1" parent="1" source="j9DOkO2j8USRJui50RMz-3">
          <mxGeometry relative="1" as="geometry">
            <mxPoint x="696" y="290" as="sourcePoint" />
            <mxPoint x="511" y="508" as="targetPoint" />
            <Array as="points">
              <mxPoint x="621" y="470" />
            </Array>
          </mxGeometry>
        </mxCell>
        <mxCell id="j9DOkO2j8USRJui50RMz-38" value="n" style="text;html=1;align=center;verticalAlign=middle;resizable=0;points=[];autosize=1;strokeColor=none;fillColor=none;labelBackgroundColor=none;fontColor=#393C56;fontSize=13;" vertex="1" parent="1">
          <mxGeometry x="505" y="480" width="30" height="30" as="geometry" />
        </mxCell>
        <mxCell id="j9DOkO2j8USRJui50RMz-39" value="" style="endArrow=none;html=1;rounded=0;labelBackgroundColor=none;fontColor=default;exitX=0;exitY=1;exitDx=0;exitDy=0;strokeColor=#E07A5F;fontSize=13;" edge="1" parent="1" source="j9DOkO2j8USRJui50RMz-3">
          <mxGeometry relative="1" as="geometry">
            <mxPoint x="661" y="290" as="sourcePoint" />
            <mxPoint x="301" y="480" as="targetPoint" />
            <Array as="points">
              <mxPoint x="581" y="470" />
            </Array>
          </mxGeometry>
        </mxCell>
        <mxCell id="j9DOkO2j8USRJui50RMz-40" value="n" style="text;html=1;align=center;verticalAlign=middle;resizable=0;points=[];autosize=1;strokeColor=none;fillColor=none;labelBackgroundColor=none;fontColor=#393C56;fontSize=13;" vertex="1" parent="1">
          <mxGeometry x="680" y="920" width="30" height="30" as="geometry" />
        </mxCell>
      </root>
    </mxGraphModel>
  </diagram>
</mxfile>
